<?xml version="1.0" standalone="no"?><!DOCTYPE svg PUBLIC "-//W3C//DTD SVG 1.1//EN" "http://www.w3.org/Graphics/SVG/1.1/DTD/svg11.dtd"><svg t="1626694652184" class="icon" viewBox="0 0 1024 1024" version="1.1" xmlns="http://www.w3.org/2000/svg" p-id="6861" xmlns:xlink="http://www.w3.org/1999/xlink" width="200" height="200"><defs><style type="text/css"></style></defs><path d="M767.7 364h-648c-36.4 0.1-65.8 29.5-66 65.8v184.5c0 4.6 0.5 9.2 1.5 13.7-0.9 9.6-1.5 19.4-1.5 29.3 0.6 162.1 132 293.2 294.1 293.5h130.4c121.1-0.3 229.7-74.5 274-187.1h15.7C878.3 765.2 969 677 970.5 566.6 972 456.2 883.7 365.5 773.4 364h-5.7zM194 602.3c0 17.8-14.5 32.2-32.3 32.2-17.8 0-32.2-14.4-32.2-32.2V477.4c0-17.8 14.5-32.2 32.3-32.2 17.8 0 32.2 14.4 32.2 32.2v124.9z m668.5 56c-24.7 24.9-58.1 39-93.1 39.4 1.9-13.3 2.8-26.8 2.9-40.2 0-10.9-0.6-21.7-1.8-32.5 0.6-3.5 0.9-7 0.9-10.5V429.9c73.7 1.6 132.3 62.6 130.7 136.4-0.9 34.6-15 67.6-39.6 92zM266.7 215.2c17.5 24.2 17.5 57 0 81.2-3.1 4-4.7 9-4.6 14-1.1 9.7 5.8 18.4 15.4 19.7 4.7-0.2 9.1-2.7 11.6-6.7 28.9-40.8 28.7-95.5-0.6-136-17.5-24.2-17.5-57 0-81.2 2.7-3.9 4-8.5 4-13.2 1.1-9.7-5.8-18.5-15.4-19.7-4 0.1-7.8 2-10.4 5.1-0.4 0.5-0.8 1-1.1 1.5-28.3 40.8-27.8 95 1.2 135.3h-0.1z m144.2 0c17.5 24.2 17.5 56.9 0 81.1-3.1 4-4.7 9-4.6 14-1.1 9.7 5.8 18.4 15.4 19.7 4.7-0.2 9.1-2.7 11.6-6.7 28.9-40.8 28.7-95.5-0.6-136-17.5-24.2-17.5-57 0-81.2 2.7-3.9 4.1-8.5 4-13.2 1.1-9.7-5.8-18.4-15.4-19.7-4 0.1-7.8 2-10.4 5.1-0.4 0.5-0.8 1-1.1 1.5-28.3 40.8-27.8 95.1 1.3 135.3l-0.2 0.1z m144.3 0c17.5 24.2 17.5 57 0 81.2-3.1 4-4.7 9-4.6 14-1.1 9.7 5.8 18.4 15.4 19.7 4.7-0.2 9.1-2.7 11.6-6.7 28.9-40.8 28.7-95.5-0.6-136-17.5-24.2-17.5-57 0-81.2 2.7-3.9 4.1-8.5 4-13.2 1.1-9.7-5.7-18.5-15.3-19.9-4 0.1-7.8 2-10.4 5.1-0.4 0.5-0.8 1-1.1 1.5-28.3 40.8-27.8 95 1.2 135.3l-0.2 0.2z" fill="#1890ff" p-id="6862"></path></svg>