<?xml version="1.0" standalone="no"?><!DOCTYPE svg PUBLIC "-//W3C//DTD SVG 1.1//EN" "http://www.w3.org/Graphics/SVG/1.1/DTD/svg11.dtd"><svg t="1626693113161" class="icon" viewBox="0 0 1024 1024" version="1.1" xmlns="http://www.w3.org/2000/svg" p-id="1209" xmlns:xlink="http://www.w3.org/1999/xlink" width="200" height="200"><defs><style type="text/css"></style></defs><path d="M512 102.4c-226.304 0-409.6 183.296-409.6 409.6s183.296 409.6 409.6 409.6 409.6-183.296 409.6-409.6-183.296-409.6-409.6-409.6zM456.192 337.408h121.856c-7.68-27.648-15.872-51.712-24.064-72.704l59.904-10.24c7.168 22.016 14.848 49.664 22.528 82.944h123.392v55.808H456.192V337.408z m122.88 330.24l-54.784 14.848c-11.776-83.456-26.624-163.328-44.032-239.616l54.272-17.408c16.384 68.608 31.232 148.992 44.544 242.176z m-189.44 43.52c0 38.912-19.456 57.856-58.368 57.856h-50.688l-13.312-56.832c15.872 2.048 30.208 3.584 44.032 3.584 13.312 0 19.968-6.144 19.968-18.944v-116.736c-28.672 10.752-50.176 17.92-64 22.528l-15.36-59.904c24.064-5.12 50.176-12.8 78.848-22.528V406.528H259.584V349.696h71.168V254.464h58.88v95.232h56.32v56.832h-56.32V496.64c24.576-11.776 43.52-21.504 55.808-28.16v59.904c-18.432 9.216-36.864 18.432-55.808 27.136v155.648z m382.464 41.472H441.856v-57.344h171.52c24.576-75.776 45.568-167.424 62.976-274.944l56.32 14.848c-16.384 95.232-36.352 182.272-60.416 260.096h99.84V752.64z" fill="#1890ff" p-id="1210"></path></svg>