<?xml version="1.0" standalone="no"?><!DOCTYPE svg PUBLIC "-//W3C//DTD SVG 1.1//EN" "http://www.w3.org/Graphics/SVG/1.1/DTD/svg11.dtd"><svg t="1626693107765" class="icon" viewBox="0 0 1024 1024" version="1.1" xmlns="http://www.w3.org/2000/svg" p-id="1070" xmlns:xlink="http://www.w3.org/1999/xlink" width="200" height="200"><defs><style type="text/css"></style></defs><path d="M194.3 443.4v416.5h634.2V443.4H194.3zM668.4 784l-14.6 14.6c-6.5 6.5-14.9 9.7-23.4 9.7-8.5 0-16.9-3.2-23.4-9.7l-73.7-74.2c-1.2-1.2-2.1-2.7-2.6-4.3l-8.3-25c-1.4-4-0.3-8.4 2.6-11.4l6.7-6.8-6.3-6.3-44 44.2c11.1 28.1 4.7 60-16.9 81.8-14.5 14.6-33.8 22.3-53.4 22.3-11.4 0-23-2.6-33.7-8-6.6-3.4-8.1-12.5-2.9-17.8l41.8-42-13.5-13.6-41.8 42c-5.3 5.3-14.4 3.8-17.7-2.9-14.5-29.3-8.8-64.6 14.2-87.7 21.7-21.8 53.4-28.1 81.3-17l44-44.2-35.2-35.4-8.8 8.9c-4.4 4.5-11.9 4.2-16.1-0.6l-56.1-64.7c-3.8-4.4-3.6-11 0.5-15.1l29-29.2c4.1-4.1 10.6-4.3 15-0.5l64.4 56.4c4.7 4.2 5 11.7 0.6 16.2l-13 13 35.2 35.4 16.7-16.8c-11.1-28.1-4.7-60 16.9-81.8 23-23.1 58-28.9 87.1-14.3 6.6 3.4 8.1 12.5 2.9 17.8l-41.8 42 13.5 13.6 41.8-42c5.3-5.3 14.4-3.8 17.7 2.9 14.5 29.3 8.8 64.6-14.2 87.7-21.7 21.8-53.4 28.1-81.3 17L540.9 655l6.3 6.3 6.7-6.8c3-3 7.4-4 11.3-2.6l24.9 8.3c1.6 0.5 3.1 1.4 4.3 2.6l73.8 74c6.2 6.3 9.7 14.6 9.7 23.5 0.2 9.1-3.2 17.5-9.5 23.7z" fill="#1890ff" p-id="1071"></path><path d="M865 334.5l-96.9-82.6c-2-1.7-4.5-2.6-7.1-2.6h-47.7v-24.4c0-6.1-5-11-11-11h-27.2v-48c0-6.1-5-11-11-11H358.7c-6.1 0-11 5-11 11v48h-27.2c-6.1 0-11 5-11 11v24.4h-50.6c-2.6 0-5.3 1-7.3 2.7l-93.8 82.7c-2.4 2.1-3.8 5.1-3.8 8.3v62c0 6.1 5 11 11 11h18.3v42.2c0 6.1 5 11 11 11 6.1 0 11-5 11-11v-42.1h107.2v39.1c0 6.1 5 11 11 11H394c6.1 0 11-5 11-11v-39.1h213v39.1c0 6.1 5 11 11 11h70.5c6.1 0 11-5 11-11v-39.1h107.2v432.7H205.2V517.2c0-6.1-5-11-11-11-6.1 0-11 5-11 11v342.6c0 6.1 5 11 11 11h634.2c6.1 0 11-5 11-11V416.1h18.3c6.1 0 11-5 11-11V343c0.1-3.3-1.2-6.4-3.7-8.5zM382.9 444.2h-48.5V357h48.5v87.2z m0-195h-51.4v-13.3h51.4v13.3z m246-35.4c-6.1 0-11 5-11 11v24.4h-24.2c-6.1 0-11 5-11 11h-48.4c0-6.1-5-11-11-11H405v-24.4c0-6.1-5-11-11-11h-24.2v-37h283.4v37h-24.3z m59.5 230.4h-48.5V357h48.5v87.2z m2.8-195h-51.4v-13.3h51.4v13.3z" fill="#1890ff" p-id="1072"></path></svg>