<?xml version="1.0" standalone="no"?><!DOCTYPE svg PUBLIC "-//W3C//DTD SVG 1.1//EN" "http://www.w3.org/Graphics/SVG/1.1/DTD/svg11.dtd"><svg t="1626773423969" class="icon" viewBox="0 0 1024 1024" version="1.1" xmlns="http://www.w3.org/2000/svg" p-id="3404" xmlns:xlink="http://www.w3.org/1999/xlink" width="200" height="200"><defs><style type="text/css"></style></defs><path d="M624.64 119.6032H269.9264a61.8496 61.8496 0 0 0-61.8496 61.44v700.416a61.8496 61.8496 0 0 0 61.8496 61.44h354.7136a61.8496 61.8496 0 0 0 61.8496-61.44v-147.456l-204.8-2.4576-115.0976 49.9712h-3.2768a10.6496 10.6496 0 0 1-10.24-10.6496l8.192-37.2736h-23.3472a61.0304 61.0304 0 0 1-52.8384-61.0304v-327.68a60.6208 60.6208 0 0 1 52.4288-61.44h348.9792V179.8144a61.8496 61.8496 0 0 0-61.8496-60.2112z m-177.3568 704.512a40.96 40.96 0 1 1 0 81.87904 40.96 40.96 0 0 1 0-81.92zM389.12 165.0688h114.688a6.5536 6.5536 0 0 1 6.144 6.5536 6.144 6.144 0 0 1-6.144 6.144H389.12a6.144 6.144 0 0 1-6.144-6.144 6.5536 6.5536 0 0 1 6.144-6.5536z" p-id="3405" fill="#1890ff"></path><path d="M738.9184 321.536h-368.64a50.7904 50.7904 0 0 0-44.6464 52.0192v266.24a50.3808 50.3808 0 0 0 43.8272 53.248H389.12l-6.5536 30.72a8.6016 8.6016 0 0 0 8.6016 8.6016h2.8672l95.4368-40.96 249.4464 2.8672A54.0672 54.0672 0 0 0 798.72 639.7952v-266.24a54.0672 54.0672 0 0 0-59.8016-52.0192z m-323.584 212.5824a33.1776 33.1776 0 1 1 0-66.3552 33.1776 33.1776 0 0 1 0 66.3552z m146.6368 0a33.1776 33.1776 0 1 1 0-66.3552 33.1776 33.1776 0 0 1 0 66.3552z m146.6368 0a33.1776 33.1776 0 1 1 0-66.3552 33.1776 33.1776 0 0 1 0 66.3552z" p-id="3406" fill="#1890ff"></path></svg>