<?xml version="1.0" standalone="no"?><!DOCTYPE svg PUBLIC "-//W3C//DTD SVG 1.1//EN" "http://www.w3.org/Graphics/SVG/1.1/DTD/svg11.dtd"><svg t="1628844697484" class="icon" viewBox="0 0 1527 1024" version="1.1" xmlns="http://www.w3.org/2000/svg" p-id="6732" xmlns:xlink="http://www.w3.org/1999/xlink" width="298.2421875" height="200"><defs><style type="text/css"></style></defs><path d="M1351.424681 0.019187H294.844665a173.325172 173.325172 0 0 0-175.883477 170.766867v682.427892a173.325172 173.325172 0 0 0 175.883477 170.766867h1056.580016a173.325172 173.325172 0 0 0 175.883477-170.766867V170.786054A173.325172 173.325172 0 0 0 1351.424681 0.019187z" fill="#efb336" p-id="6733" data-spm-anchor-id="a313x.7781069.0.i12" class="selected"></path><path d="M478.403058 479.701398a58.201442 58.201442 0 0 1-48.607797 63.957628H118.961188v-127.915256h310.834073a58.201442 58.201442 0 0 1 48.607797 63.957628z m-191.872884 191.872884H118.961188v127.915256h164.371104a63.957628 63.957628 0 0 0 0-127.915256z m511.661024-17.908136L1479.339937 49.266561a174.796198 174.796198 0 0 0-26.222627-20.466441H197.629071a174.028706 174.028706 0 0 0-51.166103 50.526526z" fill="#E0B707" p-id="6734"></path><path d="M822.495097 397.835634l-650.449077 575.618653a178.50574 178.50574 0 0 0 122.159069 47.968221h1056.580016a178.441782 178.441782 0 0 0 122.159069-47.968221z" fill="#f4ea2a" p-id="6735" data-spm-anchor-id="a313x.7781069.0.i6" class=""></path><path d="M664.519756 539.181992l89.540679 79.947035a60.12017 60.12017 0 0 0 79.307459 0L950.410353 511.680212l-127.915256-115.123731z" fill="#F7D900" p-id="6736"></path><path d="M862.788403 590.348094L1473.583751 47.987408A178.441782 178.441782 0 0 0 1351.424681 0.019187H294.844665A178.441782 178.441782 0 0 0 172.685596 47.987408l610.795348 542.360686a60.12017 60.12017 0 0 0 79.307459 0z" fill="#f4ea2a" p-id="6737" data-spm-anchor-id="a313x.7781069.0.i3" class=""></path><path d="M454.099159 511.680212H63.957628a63.957628 63.957628 0 0 1 0-127.915256h390.141531a63.957628 63.957628 0 0 1 0 127.915256z m-97.215594 191.872884a58.201442 58.201442 0 0 0-48.607798-63.957628H64.597204a63.957628 63.957628 0 0 0 0 127.915256h246.236868a58.201442 58.201442 0 0 0 45.409916-63.957628z" fill="#f4ea2a" p-id="6738" data-spm-anchor-id="a313x.7781069.0.i7" class=""></path></svg>