<?xml version="1.0" standalone="no"?><!DOCTYPE svg PUBLIC "-//W3C//DTD SVG 1.1//EN" "http://www.w3.org/Graphics/SVG/1.1/DTD/svg11.dtd"><svg t="1628844133044" class="icon" viewBox="0 0 1179 1024" version="1.1" xmlns="http://www.w3.org/2000/svg" p-id="13038" xmlns:xlink="http://www.w3.org/1999/xlink" width="230.2734375" height="200"><defs><style type="text/css"></style></defs><path d="M0 126.680412v652.747083c0 87.722434 77.969543 97.475326 107.17463 97.475326h399.493432a390.812287 390.812287 0 0 1-29.258674-146.186195 403.512481 403.512481 0 0 1 29.258674-155.885499c0-9.752891 9.699304-19.452195 9.699304-29.205087C487.16228 535.873149 457.903606 526.120257 428.698519 506.668062zM613.842692 428.698519L1071.746298 19.505783C1061.993406 9.752891 1032.78832 0 1013.282537 0H107.17463C77.969543 0 48.710869 9.752891 29.205087 29.205087L487.16228 428.698519a102.512533 102.512533 0 0 0 126.680412 0z m263.060129-97.421738a404.477053 404.477053 0 0 1 155.885499 29.205086 212.527291 212.527291 0 0 1 77.915955 48.710869V126.680412h-9.752891z m-18.541211 49.67544c-175.391282 0-321.523889 146.132608-321.52389 321.52389s146.132608 321.523889 321.52389 321.523889 321.523889-146.132608 321.523889-321.523889-146.132608-321.523889-321.523889-321.52389z m-31.241405 496.807997a36.225025 36.225025 0 0 1-50.157727 0l-150.044481-147.043592a34.295882 34.295882 0 0 1-0.482286-48.550108l0.482286-0.482285a36.171438 36.171438 0 0 1 50.104139 0l125.019206 122.393427 225.441833-220.404626a36.11785 36.11785 0 0 1 50.157727 0 34.510231 34.510231 0 0 1 0.375111 48.764456l-0.375111 0.375111-250.520697 244.947617z" p-id="13039" fill="#13bb83"></path></svg>