<?xml version="1.0" standalone="no"?><!DOCTYPE svg PUBLIC "-//W3C//DTD SVG 1.1//EN" "http://www.w3.org/Graphics/SVG/1.1/DTD/svg11.dtd"><svg t="1628842186952" class="icon" viewBox="0 0 1024 1024" version="1.1" xmlns="http://www.w3.org/2000/svg" p-id="47368" xmlns:xlink="http://www.w3.org/1999/xlink" width="200" height="200"><defs><style type="text/css"></style></defs><path d="M703.053 433.871c-122.29 0-221.602 99.217-221.682 221.482-0.07 122.315 99.472 221.714 222.022 221.674 121.94-0.08 221.299-99.36 221.479-221.339C925.068 533.349 825.603 433.871 703.053 433.871zM724.658 406.136c37.56 0 73.79 7.41 108.085 21.922 19.33 8.207 37.71 18.542 54.61 30.777L887.353 265.324l-1.935 1.747c-1.6 1.29-3.38 1.938-5.175 2.925L723.398 406.139l1.26 0L724.658 406.136zM541.224 473.659l318.894-277.982c-12.075-9.802-27.53-15.617-44.12-15.617L190.429 180.06c-18.837 0-35.737 7.41-48.46 19.342l315.672 274.257C480.656 493.646 518.214 493.646 541.224 473.659zM118.92 270.304l0 441.514c0 1.785 0.15 3.57 0.15 5.325l147.387-146.63c12.57-12.425 32.697-12.425 45.27 0 12.535 12.42 12.535 32.56 0 44.94L162.74 763.718c-3.875 3.875-8.392 6.465-13.215 7.905 11.582 8.205 25.597 13.22 40.902 13.22l275.567 0c-12.535-32.25-18.99-66.22-18.99-101.065 0-37.2 7.402-73.64 21.915-107.945 2.73-6.62 5.772-13.075 9.185-19.495-22.9-3.53-44.622-13.07-62.355-28.385L118.92 270.304z" p-id="47369" data-spm-anchor-id="a313x.7781069.0.i67" class="" fill="#f5222d"></path><path d="M800.93696 559.16544c9.26208 9.27232 9.26208 24.27392 0 33.536l-155.90912 155.904c-9.2672 9.2672-24.26368 9.2672-33.53088 0l0 0c-9.2672-9.27232-9.2672-24.27392 0-33.536l155.89888-155.904C776.65792 549.89824 791.66976 549.89824 800.93696 559.16544L800.93696 559.16544z" p-id="47370" data-spm-anchor-id="a313x.7781069.0.i71" class="" fill="#ffffff"></path><path d="M611.49696 559.16544c-9.26208 9.27232-9.26208 24.27392 0 33.536l155.90912 155.904c9.2672 9.2672 24.26368 9.2672 33.53088 0l0 0c9.2672-9.27232 9.2672-24.27392 0-33.536l-155.89888-155.904C635.77088 549.89824 620.75904 549.89824 611.49696 559.16544L611.49696 559.16544z" p-id="47371" data-spm-anchor-id="a313x.7781069.0.i70" class="" fill="#ffffff"></path></svg>