<?xml version="1.0" standalone="no"?><!DOCTYPE svg PUBLIC "-//W3C//DTD SVG 1.1//EN" "http://www.w3.org/Graphics/SVG/1.1/DTD/svg11.dtd"><svg t="1626693100950" class="icon" viewBox="0 0 1024 1024" version="1.1" xmlns="http://www.w3.org/2000/svg" p-id="932" xmlns:xlink="http://www.w3.org/1999/xlink" width="200" height="200"><defs><style type="text/css"></style></defs><path d="M144.535885 879.464115v-734.92823h734.92823v734.92823h-734.92823z m265.950928-204.128766h157.602909v22.32712c0 22.332019-9.642258 32.910086-28.921875 31.734201-27.153148 0-50.959923-0.984804-71.425225-2.939713 6.687847 30.161455 11.410986 54.252402 14.169416 72.277742 43.679234 0.779024 77.52023 0 101.527885-2.351771 41.317665-2.35177 61.978947-28.010565 61.978948-76.976383v-44.071196h125.13378v-59.935847h-360.065838v59.935847zM320.178833 224.05022c-29.514718 110.866373-63.556593 198.611904-102.120728 263.251292 9.838239 39.176574 17.314909 74.433531 22.43001 105.770871a948.135809 948.135809 0 0 0 38.368153-65.22733v273.236516h73.193952V366.253933c14.95334-40.34756 28.725895-82.458947 41.322565-126.334163l-73.193952-15.86955z m482.250105 49.36268h-164.094775a3656.689301 3656.689301 0 0 0-18.887656-50.533666l-86.770526 14.688766c5.507062 12.924938 10.622163 24.874871 15.345301 35.8449H388.056804v58.759961h414.372134V273.4129z m-377.772708 82.850909v133.972516h331.143961V356.263809H424.65623z m381.315062 157.480421H369.76199v92.253091H446.493397v-33.49313h282.741589v33.49313H805.971292v-92.253091z m-304.578756-105.770871h177.671349v30.558316h-177.671349v-30.558316z" fill="#1890ff" p-id="933"></path></svg>