<?xml version="1.0" standalone="no"?><!DOCTYPE svg PUBLIC "-//W3C//DTD SVG 1.1//EN" "http://www.w3.org/Graphics/SVG/1.1/DTD/svg11.dtd"><svg t="1626695152669" class="icon" viewBox="0 0 1024 1024" version="1.1" xmlns="http://www.w3.org/2000/svg" p-id="22902" xmlns:xlink="http://www.w3.org/1999/xlink" width="200" height="200"><defs><style type="text/css"></style></defs><path d="M149.930667 149.973333l724.053333 724.053334-60.288 60.330666L89.6 210.346667l60.330667-60.330667z m39.466666 160.085334L256 376.661333v206.464c0 6.826667 5.205333 12.586667 12.032 13.909334l2.986667 0.298666h205.610666l213.930667 213.930667-9.6 0.256H343.04v23.04c0 33.792-27.648 61.44-61.44 61.44a61.653333 61.653333 0 0 1-61.141333-55.552l-0.298667-5.888v-25.770667a46.293333 46.293333 0 0 1-30.421333-37.973333l-0.298667-5.376v-314.88h-15.36a46.250667 46.250667 0 0 1-45.824-41.088L128 404.48V358.4c0-23.637333 18.048-43.306667 41.088-45.824l4.992-0.256h15.36l-0.042667-2.261333zM298.666667 682.666667a42.666667 42.666667 0 1 0 0 85.333333 42.666667 42.666667 0 0 0 0-85.333333z m213.333333-554.666667c199.68 0 281.344 40.832 281.344 40.832 20.906667 10.453333 38.357333 36.821333 40.874667 60.757333l0.341333 5.930667v76.8h15.36c23.637333 0 43.306667 18.048 45.824 41.088L896 358.4v46.08c0 23.637333-18.048 43.306667-41.088 45.824l-4.992 0.256h-15.36v293.504L687.786667 597.333333h65.152a14.933333 14.933333 0 0 0 14.762666-11.349333l0.298667-2.858667V355.541333a14.506667 14.506667 0 0 0-12.032-13.909333L752.981333 341.333333H431.786667L251.221333 160.853333c34.048-11.52 112.085333-31.402667 246.016-32.768L512 128z m153.6 85.333333H358.4c-8.192 0-15.104 3.669333-16.725333 8.533334L341.333333 224v21.333333c0 5.12 5.888 9.429333 13.653334 10.453334L358.4 256h307.2c8.234667 0 15.104-3.669333 16.725333-8.533333L682.666667 245.333333v-21.333333c0-5.845333-7.68-10.666667-17.066667-10.666667z" p-id="22903" fill="#1890ff"></path></svg>