<?xml version="1.0" standalone="no"?><!DOCTYPE svg PUBLIC "-//W3C//DTD SVG 1.1//EN" "http://www.w3.org/Graphics/SVG/1.1/DTD/svg11.dtd"><svg t="1626774682739" class="icon" viewBox="0 0 1243 1024" version="1.1" xmlns="http://www.w3.org/2000/svg" p-id="6572" xmlns:xlink="http://www.w3.org/1999/xlink" width="242.7734375" height="200"><defs><style type="text/css"></style></defs><path d="M0 132.608637v648.630394c0 2.633141 0.219428 5.266282 0.219428 7.82628l227.474124-215.405561c19.3097-18.285701 50.395393-18.285701 69.778236 0a44.836539 44.836539 0 0 1 0 66.047953L67.583952 857.526976a48.566822 48.566822 0 0 1-20.3337 11.629706c17.846844 11.99542 39.497115 19.382843 63.049098 19.382843h425.179125a389.046579 389.046579 0 0 1 18.651415-335.725474 195.876432 195.876432 0 0 1-96.182789-41.691399L0 132.608637zM934.545618 332.069066A443.245398 443.245398 0 0 1 1185.571725 409.600439V125.294356l-2.998855 2.559998c-2.486855 1.901713-5.266282 2.852569-8.045709 4.242283L932.570762 332.142208h1.974856z m-283.062655 99.181643L1143.587755 22.967572a111.250206 111.250206 0 0 0-68.022809-22.966841H110.226207C81.261656 0.000731 55.149675 10.899009 35.547403 28.453283l487.057938 402.943712c35.47426 29.330265 93.403362 29.330265 128.950765 0z m249.709536-58.441101c-188.708437 0-341.86947 145.77361-342.015756 325.485482C559.103601 877.933819 712.630348 1024 901.704499 1024c188.123294-0.146286 341.430613-145.993039 341.723184-325.192911 0.292571-179.785014-153.161033-325.924339-342.235184-325.924338z m175.76216 380.562014h-337.334616c-26.33141 0-47.542823-20.260557-47.542823-45.275396 0-25.014839 21.211413-45.348539 47.542823-45.348539h337.334616c26.258267 0 47.542823 20.3337 47.542824 45.348539 0 25.014839-21.284556 45.348539-47.542824 45.348539z" p-id="6573" fill="#ff4d4f"></path></svg>