<?xml version="1.0" standalone="no"?><!DOCTYPE svg PUBLIC "-//W3C//DTD SVG 1.1//EN" "http://www.w3.org/Graphics/SVG/1.1/DTD/svg11.dtd"><svg t="1628841140530" class="icon" viewBox="0 0 1167 1024" version="1.1" xmlns="http://www.w3.org/2000/svg" p-id="31614" xmlns:xlink="http://www.w3.org/1999/xlink" width="227.9296875" height="200"><defs><style type="text/css"></style></defs><path d="M0.014445 126.20474v645.26197a94.921812 94.921812 0 0 0 105.858455 95.953571h393.595357a382.617443 382.617443 0 0 1-29.755924-145.601806 407.379655 407.379655 0 0 1 29.755924-155.50669c0-9.946155 9.946155-19.85104 9.946155-29.797195a332.556505 332.556505 0 0 1-86.007415-39.70208z m605.312268 297.806867L1058.51646 20.305014a104.496534 104.496534 0 0 0-56.251491-19.85104H105.8729A104.785426 104.785426 0 0 0 29.770369 30.209898l453.189747 393.801709a94.921812 94.921812 0 0 0 122.366597 0z m261.323875-95.953571a406.389167 406.389167 0 0 1 155.46542 29.755925 203.091407 203.091407 0 0 1 76.061261 49.524424V126.080929h-9.904885z" fill="#ff4d4f" p-id="31615" data-spm-anchor-id="a313x.7781069.0.i35" class="selected"></path><path d="M531.782944 705.599226a317.781719 317.781719 0 1 0 317.781718-317.781718 317.781719 317.781719 0 0 0-317.781718 317.781718z" fill="#ff4d4f" p-id="31616" data-spm-anchor-id="a313x.7781069.0.i32" class="selected"></path><path d="M804.043463 480.221828l14.444623 294.257617h49.152991l14.444623-294.257617h-78.042237z m38.752861 325.499275a42.260842 42.260842 0 0 0-31.241657 12.133483 43.333871 43.333871 0 0 0 0 62.442045 42.714815 42.714815 0 0 0 31.241657 12.711268 46.924391 46.924391 0 0 0 32.355957-12.133483 44.200548 44.200548 0 0 0 12.711269-31.819443 42.673545 42.673545 0 0 0-12.711269-31.200387 45.933903 45.933903 0 0 0-32.355957-12.133483z" fill="#FFFFFF" p-id="31617"></path></svg>